<svg width="68" height="65" viewBox="0 0 68 65" fill="none" xmlns="http://www.w3.org/2000/svg">
<path d="M44.6667 63V37.3151C44.6667 36.4636 44.2921 35.6469 43.6253 35.0448C42.9585 34.4427 42.0541 34.1045 41.1111 34.1045H26.8889C25.9459 34.1045 25.0415 34.4427 24.3747 35.0448C23.7079 35.6469 23.3333 36.4636 23.3333 37.3151V63M2 27.6832C1.99975 26.7492 2.22519 25.8263 2.66058 24.979C3.09597 24.1317 3.73084 23.3804 4.52089 22.7774L29.4098 3.51695C30.6933 2.53742 32.3195 2 34 2C35.6805 2 37.3067 2.53742 38.5902 3.51695L63.4791 22.7774C64.2692 23.3804 64.904 24.1317 65.3394 24.979C65.7748 25.8263 66.0002 26.7492 66 27.6832V56.5788C66 58.2818 65.2508 59.915 63.9172 61.1193C62.5836 62.3235 60.7749 63 58.8889 63H9.11111C7.22513 63 5.41639 62.3235 4.0828 61.1193C2.7492 59.915 2 58.2818 2 56.5788V27.6832Z" stroke="black" stroke-width="3" stroke-linecap="round" stroke-linejoin="round"/>
</svg>
