<svg width="59" height="62" viewBox="0 0 59 62" fill="none" xmlns="http://www.w3.org/2000/svg">
<path d="M2 60C2 50.8421 7.35526 43.6379 16.7053 41.6842C23.7105 40.2189 30.9474 35.5789 33.8421 32.5263M28.0526 56.9474C22.9696 56.9636 18.0665 54.9647 14.3157 51.3471C10.5649 47.7294 8.24038 42.7574 7.80318 37.417C7.36599 32.0766 8.84805 26.7579 11.9554 22.5159C15.0628 18.274 19.5685 15.4185 24.5789 14.5158C41.0789 11.1579 45.4211 9.57053 51.2105 2C54.1053 8.10526 57 14.76 57 26.4211C57 43.2105 43.1632 56.9474 28.0526 56.9474Z" stroke="black" stroke-width="3" stroke-linecap="round" stroke-linejoin="round"/>
</svg>
