<svg width="58" height="49" viewBox="0 0 58 49" fill="none" xmlns="http://www.w3.org/2000/svg">
<path d="M28.9997 11.7917V47.375M28.9997 11.7917C28.9997 9.0953 27.8759 6.50937 25.8755 4.60275C23.8751 2.69613 21.162 1.625 18.333 1.625H4.99967C4.29243 1.625 3.61415 1.89278 3.11406 2.36944C2.61396 2.84609 2.33301 3.49257 2.33301 4.16667V37.2083C2.33301 37.8824 2.61396 38.5289 3.11406 39.0056C3.61415 39.4822 4.29243 39.75 4.99967 39.75H20.9997C23.1214 39.75 25.1562 40.5533 26.6565 41.9833C28.1568 43.4133 28.9997 45.3527 28.9997 47.375M28.9997 11.7917C28.9997 9.0953 30.1235 6.50937 32.1239 4.60275C34.1243 2.69613 36.8374 1.625 39.6663 1.625H52.9997C53.7069 1.625 54.3852 1.89278 54.8853 2.36944C55.3854 2.84609 55.6663 3.49257 55.6663 4.16667V37.2083C55.6663 37.8824 55.3854 38.5289 54.8853 39.0056C54.3852 39.4822 53.7069 39.75 52.9997 39.75H36.9997C34.8779 39.75 32.8431 40.5533 31.3428 41.9833C29.8425 43.4133 28.9997 45.3527 28.9997 47.375M39.6663 24.5H44.9997M39.6663 14.3333H44.9997M12.9997 24.5H18.333M12.9997 14.3333H18.333" stroke="black" stroke-width="3" stroke-linecap="round" stroke-linejoin="round"/>
</svg>
